<svg width="108" height="40" viewBox="0 0 108 40" fill="none" xmlns="http://www.w3.org/2000/svg">
    <path d="M17.074 35.9793H4.77475C4.34687 35.9793 4 35.6324 4 35.2045V8.65784C4 4.51645 9.00712 2.44243 11.9355 5.37084L30.148 23.5832" stroke="#333A75" stroke-width="4" stroke-linecap="round"/>
    <path d="M22.4006 4.02075L34.6999 4.02075C35.1277 4.02075 35.4746 4.36762 35.4746 4.79551V31.3422C35.4746 35.4836 30.4675 37.5576 27.5391 34.6292L9.32666 16.4168" stroke="#4A5EC4" stroke-width="4" stroke-linecap="round"/>
    <path d="M66.13 13.43V28H64.37C64.11 28 63.89 27.96 63.71 27.88C63.5367 27.7933 63.3633 27.6467 63.19 27.44L56.32 18.75C56.3467 19.01 56.3633 19.2633 56.37 19.51C56.3833 19.75 56.39 19.9767 56.39 20.19V28H53.41V13.43H55.19C55.3367 13.43 55.46 13.4367 55.56 13.45C55.66 13.4633 55.75 13.49 55.83 13.53C55.91 13.5633 55.9867 13.6133 56.06 13.68C56.1333 13.7467 56.2167 13.8367 56.31 13.95L63.24 22.7C63.2067 22.42 63.1833 22.15 63.17 21.89C63.1567 21.6233 63.15 21.3733 63.15 21.14V13.43H66.13ZM72.3569 16.03V19.72H77.3369V22.33H72.3569V28H68.9569V13.43H78.3369V16.03H72.3569ZM90.755 16.11H86.655V28H83.275V16.11H79.175V13.43H90.755V16.11ZM96.1992 21.57C96.1992 21.3233 96.1659 21.0833 96.0992 20.85C96.0392 20.6167 95.9359 20.41 95.7892 20.23C95.6492 20.0433 95.4626 19.8933 95.2292 19.78C94.9959 19.6667 94.7126 19.61 94.3792 19.61C93.7926 19.61 93.3326 19.78 92.9992 20.12C92.6659 20.4533 92.4459 20.9367 92.3392 21.57H96.1992ZM92.2992 23.37C92.3992 24.2367 92.6626 24.8667 93.0892 25.26C93.5159 25.6467 94.0659 25.84 94.7392 25.84C95.0992 25.84 95.4092 25.7967 95.6692 25.71C95.9292 25.6233 96.1592 25.5267 96.3592 25.42C96.5659 25.3133 96.7526 25.2167 96.9192 25.13C97.0926 25.0433 97.2726 25 97.4592 25C97.7059 25 97.8926 25.09 98.0192 25.27L98.9192 26.38C98.5992 26.7467 98.2526 27.0467 97.8792 27.28C97.5126 27.5067 97.1326 27.6867 96.7392 27.82C96.3526 27.9467 95.9626 28.0333 95.5692 28.08C95.1826 28.1333 94.8126 28.16 94.4592 28.16C93.7326 28.16 93.0492 28.0433 92.4092 27.81C91.7759 27.57 91.2192 27.2167 90.7392 26.75C90.2659 26.2833 89.8892 25.7033 89.6092 25.01C89.3359 24.3167 89.1992 23.51 89.1992 22.59C89.1992 21.8967 89.3159 21.24 89.5492 20.62C89.7892 20 90.1292 19.4567 90.5692 18.99C91.0159 18.5233 91.5526 18.1533 92.1792 17.88C92.8126 17.6067 93.5259 17.47 94.3192 17.47C95.0059 17.47 95.6326 17.5767 96.1992 17.79C96.7726 18.0033 97.2626 18.3133 97.6692 18.72C98.0826 19.1267 98.4026 19.6267 98.6292 20.22C98.8626 20.8067 98.9792 21.4733 98.9792 22.22C98.9792 22.4533 98.9692 22.6433 98.9492 22.79C98.9292 22.9367 98.8926 23.0533 98.8392 23.14C98.7859 23.2267 98.7126 23.2867 98.6192 23.32C98.5326 23.3533 98.4192 23.37 98.2792 23.37H92.2992ZM103.43 19.23C103.75 18.67 104.117 18.23 104.53 17.91C104.95 17.59 105.43 17.43 105.97 17.43C106.437 17.43 106.817 17.54 107.11 17.76L106.91 20.04C106.877 20.1867 106.82 20.2867 106.74 20.34C106.667 20.3933 106.564 20.42 106.43 20.42C106.377 20.42 106.307 20.4167 106.22 20.41C106.134 20.4033 106.044 20.3967 105.95 20.39C105.857 20.3767 105.76 20.3667 105.66 20.36C105.567 20.3467 105.48 20.34 105.4 20.34C104.947 20.34 104.584 20.46 104.31 20.7C104.044 20.94 103.817 21.2733 103.63 21.7V28H100.53V17.63H102.37C102.524 17.63 102.65 17.6433 102.75 17.67C102.857 17.6967 102.944 17.74 103.01 17.8C103.084 17.8533 103.137 17.9267 103.17 18.02C103.21 18.1133 103.244 18.2267 103.27 18.36L103.43 19.23Z" fill="#212225"/>
</svg>
