<svg width="50" height="48" viewBox="0 0 50 48" fill="none" xmlns="http://www.w3.org/2000/svg">
<path d="M46.6095 1.79993L27.8801 15.8672L31.3437 7.5677L46.6095 1.79993Z" fill="#E2761B" stroke="#E2761B" stroke-width="0.190355" stroke-linecap="round" stroke-linejoin="round"/>
<path d="M3.37177 1.79987L21.9506 16.0004L18.6565 7.56764L3.37177 1.79987Z" fill="#E4761B" stroke="#E4761B" stroke-width="0.190355" stroke-linecap="round" stroke-linejoin="round"/>
<path d="M39.8706 34.4069L34.8823 42.1353L45.5553 45.1049L48.6235 34.5782L39.8706 34.4069Z" fill="#E4761B" stroke="#E4761B" stroke-width="0.190355" stroke-linecap="round" stroke-linejoin="round"/>
<path d="M1.39539 34.5782L4.4448 45.1049L15.1177 42.1353L10.1295 34.4069L1.39539 34.5782Z" fill="#E4761B" stroke="#E4761B" stroke-width="0.190355" stroke-linecap="round" stroke-linejoin="round"/>
<path d="M14.5154 21.3494L11.5413 25.8989L22.139 26.3748L21.7625 14.8583L14.5154 21.3494Z" fill="#E4761B" stroke="#E4761B" stroke-width="0.190355" stroke-linecap="round" stroke-linejoin="round"/>
<path d="M35.4659 21.3493L28.1247 14.7249L27.88 26.3746L38.4588 25.8987L35.4659 21.3493Z" fill="#E4761B" stroke="#E4761B" stroke-width="0.190355" stroke-linecap="round" stroke-linejoin="round"/>
<path d="M15.118 42.1359L21.4804 38.9951L15.9839 34.655L15.118 42.1359Z" fill="#E4761B" stroke="#E4761B" stroke-width="0.190355" stroke-linecap="round" stroke-linejoin="round"/>
<path d="M28.5011 38.9951L34.8823 42.1359L33.9976 34.655L28.5011 38.9951Z" fill="#E4761B" stroke="#E4761B" stroke-width="0.190355" stroke-linecap="round" stroke-linejoin="round"/>
<path d="M34.8823 42.136L28.5011 38.9952L29.0093 43.202L28.9529 44.9723L34.8823 42.136Z" fill="#D7C1B3" stroke="#D7C1B3" stroke-width="0.190355" stroke-linecap="round" stroke-linejoin="round"/>
<path d="M15.1182 42.1361L21.0476 44.9724L21.0099 43.2021L21.4805 38.9952L15.1182 42.1361Z" fill="#D7C1B3" stroke="#D7C1B3" stroke-width="0.190355" stroke-linecap="round" stroke-linejoin="round"/>
<path d="M21.1415 31.8756L15.8333 30.2956L19.5791 28.5634L21.1415 31.8756Z" fill="#233447" stroke="#233447" stroke-width="0.190355" stroke-linecap="round" stroke-linejoin="round"/>
<path d="M28.8403 31.8756L30.4026 28.5634L34.1673 30.2956L28.8403 31.8756Z" fill="#233447" stroke="#233447" stroke-width="0.190355" stroke-linecap="round" stroke-linejoin="round"/>
<path d="M15.1178 42.1353L16.0213 34.4069L10.1295 34.5782L15.1178 42.1353Z" fill="#CD6116" stroke="#CD6116" stroke-width="0.190355" stroke-linecap="round" stroke-linejoin="round"/>
<path d="M33.9791 34.4069L34.8827 42.1353L39.8709 34.5782L33.9791 34.4069Z" fill="#CD6116" stroke="#CD6116" stroke-width="0.190355" stroke-linecap="round" stroke-linejoin="round"/>
<path d="M38.459 25.8987L27.8801 26.3746L28.859 31.8758L30.4213 28.5637L34.186 30.2959L38.459 25.8987Z" fill="#CD6116" stroke="#CD6116" stroke-width="0.190355" stroke-linecap="round" stroke-linejoin="round"/>
<path d="M15.8332 30.2959L19.5979 28.5637L21.1414 31.8758L22.1391 26.3746L11.5414 25.8987L15.8332 30.2959Z" fill="#CD6116" stroke="#CD6116" stroke-width="0.190355" stroke-linecap="round" stroke-linejoin="round"/>
<path d="M11.5414 25.8988L15.9838 34.6551L15.8332 30.296L11.5414 25.8988Z" fill="#E4751F" stroke="#E4751F" stroke-width="0.190355" stroke-linecap="round" stroke-linejoin="round"/>
<path d="M34.1858 30.2959L33.9976 34.655L38.4587 25.8987L34.1858 30.2959Z" fill="#E4751F" stroke="#E4751F" stroke-width="0.190355" stroke-linecap="round" stroke-linejoin="round"/>
<path d="M22.1393 26.3748L21.1417 31.8761L22.384 38.3672L22.6664 29.8203L22.1393 26.3748Z" fill="#E4751F" stroke="#E4751F" stroke-width="0.190355" stroke-linecap="round" stroke-linejoin="round"/>
<path d="M27.8802 26.3748L27.3719 29.8012L27.5978 38.3672L28.859 31.8761L27.8802 26.3748Z" fill="#E4751F" stroke="#E4751F" stroke-width="0.190355" stroke-linecap="round" stroke-linejoin="round"/>
<path d="M28.8593 31.8756L27.5981 38.3667L28.5016 38.9949L33.9981 34.6548L34.1863 30.2957L28.8593 31.8756Z" fill="#F6851B" stroke="#F6851B" stroke-width="0.190355" stroke-linecap="round" stroke-linejoin="round"/>
<path d="M15.8333 30.2957L15.9838 34.6548L21.4803 38.9949L22.3838 38.3667L21.1415 31.8756L15.8333 30.2957Z" fill="#F6851B" stroke="#F6851B" stroke-width="0.190355" stroke-linecap="round" stroke-linejoin="round"/>
<path d="M28.9535 44.9722L29.0099 43.2019L28.5393 42.7831H21.4429L21.0099 43.2019L21.0476 44.9722L15.1182 42.1359L17.1888 43.8491L21.3864 46.7996H28.5958L32.8123 43.8491L34.8829 42.1359L28.9535 44.9722Z" fill="#C0AD9E" stroke="#C0AD9E" stroke-width="0.190355" stroke-linecap="round" stroke-linejoin="round"/>
<path d="M28.5018 38.9957L27.5982 38.3675H22.3841L21.4806 38.9957L21.01 43.2025L21.4429 42.7838H28.5394L29.01 43.2025L28.5018 38.9957Z" fill="#161616" stroke="#161616" stroke-width="0.190355" stroke-linecap="round" stroke-linejoin="round"/>
<path d="M47.4 16.7809L49 9.0144L46.6095 1.79993L28.5012 15.3913L35.4659 21.3494L45.3106 24.2619L47.4942 21.6921L46.553 21.0068L48.0589 19.6172L46.8918 18.7035L48.3977 17.5423L47.4 16.7809Z" fill="#763D16" stroke="#763D16" stroke-width="0.190355" stroke-linecap="round" stroke-linejoin="round"/>
<path d="M1.00012 9.01446L2.60012 16.781L1.58365 17.5424L3.08953 18.7036L1.9413 19.6173L3.44718 21.0068L2.506 21.6921L4.67071 24.2619L14.5154 21.3495L21.4801 15.3914L3.37189 1.79999L1.00012 9.01446Z" fill="#763D16" stroke="#763D16" stroke-width="0.190355" stroke-linecap="round" stroke-linejoin="round"/>
<path d="M45.3104 24.2622L35.4657 21.3497L38.4587 25.8992L33.9975 34.6556L39.8704 34.5794H48.6234L45.3104 24.2622Z" fill="#F6851B" stroke="#F6851B" stroke-width="0.190355" stroke-linecap="round" stroke-linejoin="round"/>
<path d="M14.5155 21.3497L4.6708 24.2622L1.39551 34.5794H10.1296L15.9837 34.6556L11.5414 25.8992L14.5155 21.3497Z" fill="#F6851B" stroke="#F6851B" stroke-width="0.190355" stroke-linecap="round" stroke-linejoin="round"/>
<path d="M27.8802 26.3748L28.5014 15.3913L31.3626 7.56772H18.6567L21.4802 15.3913L22.139 26.3748L22.3649 29.8393L22.3837 38.3672H27.5979L27.6355 29.8393L27.8802 26.3748Z" fill="#F6851B" stroke="#F6851B" stroke-width="0.190355" stroke-linecap="round" stroke-linejoin="round"/>
</svg>
