<?xml version="1.0" standalone="no"?>
<!DOCTYPE svg PUBLIC "-//W3C//DTD SVG 20010904//EN"
 "http://www.w3.org/TR/2001/REC-SVG-20010904/DTD/svg10.dtd">
<svg version="1.0" xmlns="http://www.w3.org/2000/svg"
 width="512.000000pt" height="512.000000pt" viewBox="0 0 512.000000 512.000000"
 preserveAspectRatio="xMidYMid meet">
<metadata>
Created by potrace 1.14, written by Peter Selinger 2001-2017
</metadata>
<g transform="translate(0.000000,512.000000) scale(0.100000,-0.100000)"
fill="#000000" stroke="none">
<path d="M1015 4859 c-88 -12 -114 -19 -196 -49 -188 -68 -337 -188 -439 -353
-55 -90 -107 -239 -118 -342 -4 -38 -7 -857 -6 -1820 l1 -1750 22 -57 c42
-107 152 -201 261 -222 19 -4 410 -7 868 -6 l833 0 54 25 c160 76 194 286 68
411 -78 76 -50 74 -870 74 l-723 0 -1 23 c0 12 -1 752 -1 1643 0 1799 -4 1683
66 1775 72 95 153 134 276 134 154 0 51 92 1399 -1256 954 -953 1209 -1204
1246 -1220 115 -51 252 -10 322 97 21 33 41 121 37 163 -10 90 5 75 -1266
1344 -1115 1114 -1231 1226 -1305 1271 -160 95 -360 138 -528 115z"/>
<path d="M3210 4860 c-457 -6 -450 -5 -519 -71 -53 -50 -75 -105 -75 -184 0
-58 5 -79 28 -122 26 -47 79 -95 131 -119 11 -5 347 -11 765 -14 l745 -5 -1
-1655 0 -1655 -31 -65 c-36 -76 -86 -127 -163 -167 -48 -24 -66 -28 -145 -28
-74 0 -99 4 -140 24 -40 19 -285 258 -1260 1232 -913 911 -1220 1211 -1250
1224 -89 36 -196 18 -267 -45 -86 -75 -112 -203 -63 -305 13 -26 416 -436
1215 -1235 1199 -1198 1229 -1228 1285 -1266 66 -46 191 -105 258 -120 9 -2
27 -6 40 -9 109 -25 254 -24 372 4 294 70 526 279 619 557 42 129 42 116 42
1974 l-1 1775 -31 65 c-38 79 -95 138 -172 176 -54 28 -65 29 -207 32 -333 6
-782 7 -1175 2z"/>
</g>
</svg>
